<svg width="180px" height="30px" viewBox="0 0 160 28" version="1.1" xmlns="http://www.w3.org/2000/svg" xmlns:xlink="http://www.w3.org/1999/xlink">
    <!-- Generator: Sketch 3.8.3 (29802) - http://www.bohemiancoding.com/sketch -->
    <title>Group 8</title>
    <desc>Created with Sketch.</desc>
    <defs></defs>
    <g id="Welcome" stroke="none" stroke-width="1" fill="none" fill-rule="evenodd">
        <g id="YMM---Desktop---Expanded-the-Best-and-Rest" transform="translate(-150.000000, -11.000000)">
            <g id="Group-8" transform="translate(150.000000, 11.000000)">
                <polygon id="Fill-1" fill="#24408E" points="50.7010046 26.8642922 67.8641096 26.8642922 67.8641096 19.4622831 50.7010046 19.4622831"></polygon>
                <path d="M94.7948858,9.31302283 C94.7948858,10.4359452 94.5903196,10.9462648 94.08,10.9462648 L93.1612785,10.9462648 L93.1612785,4.72051142 L93.8761644,4.72051142 C94.3861187,4.72051142 94.7948858,5.12818265 94.7948858,5.74115068 L94.7948858,9.31302283 Z M101.627397,23.0905571 L101.627397,17.6816073 C101.627397,14.7219726 101.01516,13.5994155 98.2604566,12.68179 C100.811324,11.7619726 101.525845,10.8439817 101.525845,8.70078539 L101.525845,5.84306849 C101.525845,2.67850228 99.387032,1.04599087 95.2025571,1.04599087 L86.123105,1.04599087 L86.123105,26.8669954 L93.1612785,26.8669954 L93.1612785,14.5177717 L93.7742466,14.5177717 C94.4884018,14.5177717 94.7941553,14.9261735 94.7941553,15.9471781 L94.7941553,23.2943927 C94.7941553,24.6828858 94.8957078,25.6085479 95.4056621,26.8669954 L102.444201,26.8669954 C101.848037,25.5764018 101.627397,24.8870868 101.627397,23.0905571 L101.627397,23.0905571 Z" id="Fill-2" fill="#FEFEFE"></path>
                <polygon id="Fill-4" fill="#FEFEFE" points="142.356603 1.04606393 142.356603 4.72058447 136.845005 4.72058447 136.845005 10.9459726 141.847014 10.9459726 141.847014 14.51821 136.845005 14.51821 136.845005 23.0906301 142.7661 23.0906301 142.7661 26.8667032 129.200073 26.8667032 129.200073 1.04606393"></polygon>
                <polygon id="Fill-5" fill="#FEFEFE" points="125.519781 26.8668858 115.629005 26.8668858 110.933845 1.04588128 117.972384 1.04588128 120.931653 16.8646941 122.769096 1.04588128 128.480146 1.04588128"></polygon>
                <polygon id="Fill-6" fill="#FEFEFE" points="103.119635 26.8668493 110.153059 26.8668493 110.153059 1.04584475 103.119635 1.04584475"></polygon>
                <path d="M22.7652237,16.0485479 L24.3984658,16.0485479 L23.5820274,9.92507763 L22.7652237,16.0485479 Z M29.3949954,1.04617352 L33.0691507,26.8664475 L25.9290594,26.8664475 L24.9263196,19.6280913 L22.2961826,19.6280913 L21.3365479,26.8664475 L15.3190137,26.8664475 L19.606137,1.04617352 L29.3949954,1.04617352 Z" id="Fill-14" fill="#FEFEFE"></path>
                <path d="M65.3854612,16.444895 C65.3854612,16.8076347 65.2864658,16.9727489 65.1213516,16.9727489 L64.7618995,16.9727489 L64.7618995,10.9658082 L65.0884749,10.9658082 C65.2532237,10.9658082 65.3854612,11.0980457 65.3854612,11.2960365 L65.3854612,16.444895 Z M65.6192511,9.77786301 L62.4861005,9.77786301 L62.4861005,18.1281826 L65.9494795,18.1281826 C67.2039087,18.1281826 67.6324018,17.500968 67.6324018,16.3787763 L67.6324018,11.7252603 C67.5995251,10.4047123 66.9390685,9.77786301 65.6192511,9.77786301 L65.6192511,9.77786301 Z" id="Fill-15" fill="#FEFEFE"></path>
                <polygon id="Fill-17" fill="#FEFEFE" points="59.8096804 12.8546849 59.8096804 9.77632877 61.6471233 9.77632877 61.6471233 18.1299361 59.8973516 18.1299361 58.6659361 14.9646393 58.6659361 18.1299361 56.9727854 18.1299361 56.9727854 9.77632877 58.7539726 9.77632877"></polygon>
                <path d="M53.147653,14.6237443 L53.5330411,11.763105 L53.9173333,14.6237443 L53.147653,14.6237443 Z M55.317516,9.77515982 L52.3414429,9.77515982 L50.9547763,18.1269406 L52.6808037,18.1269406 L52.9927671,15.7828311 L54.0714886,15.7828311 L54.3896621,18.1269406 L56.5061918,18.1269406 L55.317516,9.77515982 Z" id="Fill-18" fill="#FEFEFE"></path>
                <path d="M152.109005,9.31302283 C152.109005,10.4359452 151.904804,10.9462648 151.394119,10.9462648 L150.475763,10.9462648 L150.475763,4.72051142 L151.190648,4.72051142 C151.700968,4.72051142 152.109005,5.12818265 152.109005,5.74115068 L152.109005,9.31302283 Z M159.112475,23.0905571 L159.112475,17.6816073 C159.112475,14.7219726 158.500237,13.5994155 155.744804,12.68179 C158.295671,11.7619726 159.010192,10.8439817 159.010192,8.70078539 L159.010192,5.84306849 C159.010192,2.67850228 156.871379,1.04599087 152.687635,1.04599087 L143.608183,1.04599087 L143.608183,26.8669954 L150.646356,26.8669954 L150.646356,14.5177717 L151.258594,14.5177717 C151.972018,14.5177717 152.278868,14.9261735 152.278868,15.9471781 L152.278868,23.2943927 C152.278868,24.6828858 152.379689,25.6085479 152.89074,26.8669954 L159.928548,26.8669954 C159.332749,25.5764018 159.112475,24.8870868 159.112475,23.0905571 L159.112475,23.0905571 Z" id="Fill-19" fill="#FEFEFE"></path>
                <polygon id="Fill-21" fill="#C4122E" points="50.7010046 8.44420091 67.8641096 8.44420091 67.8641096 1.04219178 50.7010046 1.04219178"></polygon>
                <path d="M77.7928767,21.6617717 C77.7928767,22.7843288 77.4871233,23.2950137 76.9768037,23.2950137 L76.1596347,23.2950137 L76.1596347,4.72040183 L76.8745205,4.72040183 C77.3844749,4.72040183 77.7928767,5.12843836 77.7928767,5.7406758 L77.7928767,21.6617717 Z M78.8094977,1.04588128 L69.1221918,1.04588128 L69.1221918,26.8665205 L79.830137,26.8665205 C83.7077626,26.8665205 85.0356164,24.9275251 85.0356164,21.4575708 L85.0356164,7.06706849 C84.932968,2.98487671 82.8916895,1.04588128 78.8094977,1.04588128 L78.8094977,1.04588128 Z" id="Fill-7" fill="#FEFEFE"></path>
                <path d="M42.4429224,9.31302283 C42.4429224,10.4359452 42.2379909,10.9462648 41.7280365,10.9462648 L40.8093151,10.9462648 L40.8093151,4.72051142 L41.5238356,4.72051142 C42.03379,4.72051142 42.4429224,5.12818265 42.4429224,5.74115068 L42.4429224,9.31302283 Z M49.2757991,23.0905571 L49.2757991,17.6816073 C49.2757991,14.7219726 48.6631963,13.5994155 45.9077626,12.68179 C48.4589954,11.7619726 49.173516,10.8439817 49.173516,8.70078539 L49.173516,5.84306849 C49.173516,2.67850228 47.0347032,1.04599087 42.8505936,1.04599087 L33.7711416,1.04599087 L33.7711416,26.8669954 L40.8093151,26.8669954 L40.8093151,14.5177717 L41.4219178,14.5177717 C42.1357078,14.5177717 42.4421918,14.9261735 42.4421918,15.9471781 L42.4421918,23.2943927 C42.4421918,24.6828858 42.5437443,25.6085479 43.0536986,26.8669954 L50.0918721,26.8669954 C49.4960731,25.5764018 49.2757991,24.8870868 49.2757991,23.0905571 L49.2757991,23.0905571 Z" id="Fill-9" fill="#FEFEFE"></path>
                <path d="M15.2636347,21.7637991 C15.1617169,25.8467215 13.2267397,27.3773151 7.91970776,27.3773151 C2.20390868,27.3773151 0.167378995,25.6421553 0.167378995,20.8454429 L0.167378995,6.14882192 C0.167378995,2.27119635 2.51075799,0.53603653 8.12354338,0.53603653 C12.4099361,0.53603653 15.1617169,2.67850228 15.1617169,5.9449863 L15.1617169,10.4352146 L8.93998174,10.4352146 L8.93998174,5.90809132 C8.93998174,4.68032877 8.45486758,4.51594521 8.12208219,4.51594521 C7.78856621,4.51594521 7.30491324,4.68032877 7.30491324,5.74115068 L7.30491324,22.1506484 C7.30491324,22.951379 7.79039269,23.2943927 8.22473059,23.2943927 C8.78655708,23.2943927 9.14418265,22.951379 9.14418265,21.9844384 L9.14418265,16.0487306 L15.2636347,16.0487306 L15.2636347,21.7637991 Z" id="Fill-11" fill="#FEFEFE"></path>
                <path d="M157.410119,25.6985936 C157.410119,25.2343014 157.787105,24.8562192 158.249936,24.8562192 C158.719342,24.8562192 159.087562,25.2262648 159.087562,25.6985936 C159.087562,26.1628858 158.71021,26.540968 158.246283,26.540968 C157.784913,26.540968 157.410119,26.1628858 157.410119,25.6985936 M157.225279,25.6985936 C157.225279,26.2651689 157.682995,26.7258082 158.246283,26.7258082 C158.812128,26.7258082 159.272402,26.2651689 159.272402,25.6985936 C159.272402,25.1323836 158.813589,24.6710137 158.249936,24.6710137 C157.684822,24.6710137 157.225279,25.1323836 157.225279,25.6985936" id="Fill-22" fill="#FEFEFE"></path>
                <path d="M158.158539,25.6850411 L158.099361,25.6949041 L158.044566,25.7044018 L158.0179,25.6777352 L158.049315,25.5842192 L158.049315,25.4556347 L158.014612,25.3734429 L158.042374,25.3467763 L158.114338,25.3529863 L158.211872,25.3551781 C158.399635,25.3639452 158.464658,25.4059543 158.464658,25.5020274 C158.464658,25.6127123 158.351781,25.6543562 158.158539,25.6850411 L158.158539,25.6850411 Z M158.607489,25.926137 C158.516164,25.832621 158.443836,25.7982831 158.330959,25.7690594 L158.330959,25.7445845 C158.531142,25.6927123 158.687854,25.6265936 158.687854,25.4581918 C158.687854,25.2919817 158.532968,25.2017534 158.249863,25.2017534 L157.835251,25.2017534 L157.835251,26.1416621 L158.058813,26.1416621 L158.058813,25.9170046 L158.028128,25.8271416 L158.052968,25.8015708 L158.095708,25.8077808 L158.139909,25.8136256 C158.247671,25.8271416 158.287123,25.84979 158.363105,25.939653 L158.547215,26.1416621 L158.804018,26.1416621 L158.804018,26.123032 L158.607489,25.926137 Z" id="Fill-24" fill="#FEFEFE"></path>
            </g>
        </g>
    </g>
</svg>
