<svg width="10px" height="10px" viewBox="0 0 10 10" version="1.1" xmlns="http://www.w3.org/2000/svg" xmlns:xlink="http://www.w3.org/1999/xlink">
    <title>Clock Icon</title>
    <defs></defs>
    <g stroke="none" stroke-width="1" fill="none" fill-rule="evenodd">
        <g transform="translate(-1015.000000, -1616.000000)" fill="#BABABA">
            <path d="M1017.49161,1616.67114 C1018.25783,1616.22371 1019.09396,1616 1020,1616 C1020.90632,1616 1021.74217,1616.22371 1022.50867,1616.67114 C1023.27461,1617.11857 1023.88143,1617.72539 1024.32914,1618.49161 C1024.77629,1619.25811 1025,1620.09396 1025,1621 C1025,1621.90604 1024.77629,1622.74217 1024.32914,1623.50839 C1023.88143,1624.27461 1023.27461,1624.88143 1022.50867,1625.32886 C1021.74217,1625.77629 1020.90632,1626 1020,1626 C1019.09396,1626 1018.25783,1625.77629 1017.49161,1625.32886 C1016.72511,1624.88143 1016.11829,1624.27461 1015.67114,1623.50839 C1015.22371,1622.74217 1015,1621.90604 1015,1621 C1015,1620.09396 1015.22371,1619.25811 1015.67114,1618.49161 C1016.11829,1617.72539 1016.72511,1617.11857 1017.49161,1616.67114 C1017.49161,1616.67114 1016.72511,1617.11857 1017.49161,1616.67114 L1017.49161,1616.67114 L1017.49161,1616.67114 Z M1022.45414,1618.54614 C1021.77461,1617.86661 1020.95638,1617.52685 1020,1617.52685 C1019.04362,1617.52685 1018.22567,1617.86661 1017.54614,1618.54614 C1016.86661,1619.22567 1016.52685,1620.04362 1016.52685,1621 C1016.52685,1621.95638 1016.86661,1622.77433 1017.54614,1623.45386 C1018.22567,1624.13339 1019.04362,1624.47315 1020,1624.47315 C1020.95638,1624.47315 1021.77461,1624.13339 1022.45414,1623.45386 C1023.13339,1622.77433 1023.47315,1621.95638 1023.47315,1621 C1023.47315,1620.04362 1023.13339,1619.22567 1022.45414,1618.54614 C1022.45414,1618.54614 1023.13339,1619.22567 1022.45414,1618.54614 L1022.45414,1618.54614 L1022.45414,1618.54614 Z M1020,1621 L1021.67785,1621 L1021.67785,1621.83893 L1019.16107,1621.83893 L1019.16107,1618.48322 L1020,1618.48322 L1020,1621 L1020,1621 Z"></path>
        </g>
    </g>
</svg>
