<svg width="20px" height="20px" viewBox="0 0 30 30" version="1.1" xmlns="http://www.w3.org/2000/svg" xmlns:xlink="http://www.w3.org/1999/xlink">
    <title>Shopping Icon</title>
    <defs></defs>
    <g stroke="none" stroke-width="1" fill="none" fill-rule="evenodd">
        <g transform="translate(-348.000000, -158.000000)" fill="#1383B3">
            <path d="M362.98847,167.653776 C363.903254,167.659516 364.649357,166.915952 364.649708,165.998278 C364.650021,165.087399 363.9268,164.357696 363.008423,164.342155 C362.097817,164.326771 361.34906,165.063424 361.335862,165.987541 C361.322898,166.894632 362.070094,167.648037 362.98847,167.653776 M359.16733,161 L366.586186,161 C366.59587,161.008239 366.60446,161.021905 366.615354,161.023975 C367.4768,161.187189 368.010958,161.944967 367.999829,162.85694 C367.973004,165.049329 367.988935,167.242264 367.99245,169.435005 C367.993543,170.100749 367.759107,170.662162 367.290274,171.130799 C364.271503,174.148399 361.251287,177.164437 358.237396,180.18684 C357.87395,180.55134 357.5025,180.883822 356.98072,180.991864 L356.473114,180.991864 C356.077299,180.88675 355.733767,180.698507 355.440566,180.40433 C353.242515,178.199211 351.04259,175.995889 348.835871,173.7994 C348.462859,173.428106 348.115656,173.052244 348,172.51875 L348,172.011144 C348.109135,171.482179 348.448919,171.108386 348.817792,170.740645 C351.842733,167.725349 354.858615,164.700916 357.886523,161.688587 C358.097492,161.478711 358.374098,161.327992 358.637194,161.179927 C358.797012,161.089963 358.989512,161.058023 359.16733,161"></path>
        </g>
    </g>
</svg>
