<svg xmlns="http://www.w3.org/2000/svg" width="593.53" height="35.75" viewBox="0 0 593.53 35.75">
  <title>sprite2</title>
  <g id="icon-comments">
    <path d="M394.57,4.19H385a1.2,1.2,0,0,0-1.2,1.2v11.3l2.4-2.5h8.4a1.2,1.2,0,0,0,1.2-1.2V5.44a1.23,1.23,0,0,0-1.2-1.25Z" transform="translate(-4.25 -2.17)" style="fill: #1383b3"/>
  </g>
  <g id="icon-clock">
    <path d="M367.46,6.11a5,5,0,0,1,5,0,5.07,5.07,0,0,1,1.82,1.83,5,5,0,0,1-1.82,6.83A5,5,0,0,1,365.64,13a5,5,0,0,1,0-5,5,5,0,0,1,1.82-1.83Zm5,1.88a3.47,3.47,0,0,0-5.92,2.45A3.47,3.47,0,0,0,370,13.92a3.48,3.48,0,0,0,3.47-3.48,3.35,3.35,0,0,0-1-2.45ZM370,10.47h2v1h-3v-4h1v3Z" transform="translate(-4.25 -2.17)" style="fill: #bababa"/>
  </g>
  <g id="icon-photos">
    <path d="M447.56,16.1v-9h8v9Zm1-3h6v-5h-6Z" transform="translate(-4.25 -2.17)" style="fill: #1383b3"/>
    <polygon points="448.31 1.93 440.31 1.93 440.31 10.93 441.31 10.93 441.31 3.93 448.31 3.93 448.31 1.93" style="fill: #1383b3"/>
  </g>
  <g id="icon-story">
    <path d="M410.5,5.1V7.29s0,.36.1.49a4.21,4.21,0,0,0,.47.32h2.43v7h1V7.87A1.64,1.64,0,0,0,414,6.72L412.1,4.63a1.68,1.68,0,0,0-1.23-.53h-4.46a.91.91,0,0,0-.91.91V15.18a.92.92,0,0,0,.92.92h7.2a.88.88,0,0,0,.88-.86V15.1h-8V5.1Zm1,1.11.91.89h0l-.91,0V6.21Z" transform="translate(-4.25 -2.17)" style="fill: #1383b3"/>
    <path d="M407.27,7.1h1.38a.5.5,0,0,0,0-1h-1.38a.5.5,0,0,0,0,1Z" transform="translate(-4.25 -2.17)" style="fill: #1383b3"/>
    <path d="M411.74,8.1h-4.41a.5.5,0,0,0,0,1h4.41a.5.5,0,0,0,0-1Z" transform="translate(-4.25 -2.17)" style="fill: #1383b3"/>
    <path d="M411.79,10.1h-4.6a1.24,1.24,0,0,0-.52.82c0,.29.23.57.52.18h4.6c.28.39.52.11.52-.18a.56.56,0,0,0-.52-.56Z" transform="translate(-4.25 -2.17)" style="fill: #1383b3"/>
    <path d="M411.79,12.1h-4.6a1,1,0,0,0-.52.77c0,.29.23.56.52.23h4.6c.28.33.52.06.52-.23a.57.57,0,0,0-.52-.57Z" transform="translate(-4.25 -2.17)" style="fill: #1383b3"/>
  </g>
  <g id="icon-shopping">
    <path d="M433.68,8a1.1,1.1,0,1,0-1.1-1.11A1.09,1.09,0,0,0,433.68,8M430.56,3.6h5.11a1.22,1.22,0,0,1,.83,1.64,7.32,7.32,0,0,0,0,3.45,1.55,1.55,0,0,1-.42,1.48l-5.89,5.89a1.65,1.65,0,0,1-.82.53h-.33a1.45,1.45,0,0,1-.67-.38l-4.29-4.3a1.71,1.71,0,0,1-.55-.83v-.33a1.63,1.63,0,0,1,.53-.83L430,4a2.8,2.8,0,0,1,.49-.33,1.93,1.93,0,0,1,.34-.11" transform="translate(-4.25 -2.17)" style="fill: #1383b3"/>
  </g>
  <g id="icon-youtube">
    <rect x="325.75" y="2.6" width="30" height="20" rx="4" ry="4" style="fill: #aaa"/>
    <polygon points="339.75 8.92 344.3 12.46 339.75 16.01 339.75 8.92"/>
  </g>
  <g id="icon-instagram">
    <path d="M324.14,26l-.34.06H306.2l-.14,0a2.4,2.4,0,0,1-2-1.82l-.06-.34V6.22a.5.5,0,0,0,0-.12,2.36,2.36,0,0,1,1.84-2c.1,0,.21,0,.31-.06h17.66l.12,0A2.37,2.37,0,0,1,326,6c0,.09,0,.19.05.29v17.6c0,.1,0,.2-.05.29A2.37,2.37,0,0,1,324.14,26ZM306,13.11V23.17a.87.87,0,0,0,.87.88h15.25a.88.88,0,0,0,.88-.88V12.05h-1.6a14.78,14.78,0,0,1,.27,3.89,6.79,6.79,0,0,1-.95,2.74,6.84,6.84,0,0,1-9.18,2.42,6.72,6.72,0,0,1-2.66-2.68,6.85,6.85,0,0,1-.53-5.37H306Zm4.42,2a4.46,4.46,0,1,0,4.46-4.39A4.46,4.46,0,0,0,310.42,15.06Zm11.7-5a.91.91,0,0,0,.88-.91V7a.92.92,0,0,0-.92-.93h-2.16A.92.92,0,0,0,319,7V9.12a.85.85,0,0,0,.06.31.91.91,0,0,0,.9.62h2.16Z" transform="translate(-4.25 -2.17)" style="fill: #aaa"/>
  </g>
  <g id="icon-twitter">
    <path d="M284.67,10l.06.93-.94-.11a15.3,15.3,0,0,1-8.94-4.4L273.61,5.2l-.32.91a5.47,5.47,0,0,0,1.16,5.62c.75.79.59.91-.71.43-.45-.15-.85-.26-.88-.2a7,7,0,0,0,.67,2.54,6.06,6.06,0,0,0,2.58,2.42l.92.44-1.09,0c-1.05,0-1.09,0-1,.42a5.7,5.7,0,0,0,3.51,3.11l1.17.4-1,.6a10.48,10.48,0,0,1-5,1.41,5.47,5.47,0,0,0-1.54.15,14.37,14.37,0,0,0,3.62,1.67A15.87,15.87,0,0,0,288,23.73a16.42,16.42,0,0,0,6.25-7.36,19.46,19.46,0,0,0,1.28-5.69c0-.87.06-1,1.11-2A14.7,14.7,0,0,0,298,7.2c.18-.37.16-.37-.79,0-1.6.57-1.83.49-1-.36a5.47,5.47,0,0,0,1.28-2c0-.06-.28,0-.6.21a10.58,10.58,0,0,1-1.65.64l-1,.32-.92-.62a8.06,8.06,0,0,0-1.6-.84,6.49,6.49,0,0,0-3.28.08A5.43,5.43,0,0,0,284.67,10Z" transform="translate(-4.25 -2.17)" style="fill: #aaa"/>
  </g>
  <g id="icon-facebook">
    <path d="M256.33,25V14h3l.36-3h-3.33V9.34c0-.86.08-1.33,1.33-1.33h1.66V5h-2.45c-3.31-.37-4.55,4.12-4.55,4.12V11h-2v3h2V25Z" transform="translate(-4.25 -2.17)" style="fill: #aaa"/>
  </g>
  <g id="icon-search">
    <path d="M219.62,17.22l-5,5a.46.46,0,0,0,0,.6l1.83,1.82a.43.43,0,0,0,.6,0l5-5a8,8,0,0,0,10.08-1.07,7.78,7.78,0,0,0,2.37-5.71,7.82,7.82,0,0,0-2.37-5.72,8.08,8.08,0,0,0-11.43,0,7.83,7.83,0,0,0-2.38,5.72,7.8,7.8,0,0,0,1.31,4.36ZM230.31,9a5.29,5.29,0,0,1,1.62,3.89,5.53,5.53,0,0,1-5.53,5.51,5.29,5.29,0,0,1-3.9-1.61,5.35,5.35,0,0,1-1.61-3.9A5.31,5.31,0,0,1,222.5,9a5.5,5.5,0,0,1,7.81,0Z" transform="translate(-4.25 -2.17)" style="fill: #aaa"/>
  </g>
  <g id="icon-backfires">
    <path id="Backfires-DK" d="M189.34,25h6.13c2.15,0,3.06-1.4,3.55-4.49l.51-3.33c.32-2.07-.7-2.88-1.48-3.15,1-.29,1.85-1,2.12-2.9l.4-2.55C201,6,199.82,5,197.48,5h-5Zm5.7-8.95c.83,0,1,.46.86,1.32l-.51,3.22c-.19,1.16-.54,1.24-1.11,1.24h-1l.94-5.78Zm1.23-8c.62,0,.89.35.78,1l-.43,2.66c-.16.86-.48,1.05-1,1.05h-.86l.75-4.76Z" transform="translate(-4.25 -2.17)" style="fill: #aaa"/>
  </g>
  <g id="logo-hearstautos">
    <polygon points="467.53 0.19 467.53 6.19 464.53 6.19 464.53 0.19 458.53 0.19 458.53 16.19 464.53 16.19 464.53 10.19 467.53 10.19 467.53 16.19 473.53 16.19 473.53 0.19 467.53 0.19" style="fill: #fff"/>
    <polygon points="484.53 0.19 484.53 16.19 496.53 16.19 496.53 12.19 490.53 12.19 490.53 10.19 496.53 10.19 496.53 6.19 490.53 6.19 490.53 4.19 496.53 4.19 496.53 0.19 484.53 0.19" style="fill: #fff"/>
    <path d="M515,2.36l-5.21,16h5.91l.6-2H521l.56,2H528l-5-16Zm3.72,3.55,1.38,6.45h-2.86Z" transform="translate(-4.25 -2.17)" style="fill: #fff"/>
    <path d="M536.78,18.36h6v-5.8h.55c1.44,0,1.64.68,1.88,2.4l.16,1.19a17.57,17.57,0,0,0,.46,2.22h6.08c-.26-1.18-.46-2.13-.55-2.85l-.2-1.71c-.28-2.3-.8-3.28-2.94-3.64,2.08-.56,3.14-1.8,3.14-3.73,0-3.2-2.06-4.07-6.44-4.07h-8.14Zm6-9V6.27a5.79,5.79,0,0,1,.69,0c1.37,0,2,.44,2,1.45s-.76,1.68-2.21,1.68a3.46,3.46,0,0,1-.45,0Z" transform="translate(-4.25 -2.17)" style="fill: #fff"/>
    <path d="M566.78,14.36v.14c0,1.2.48,1.75,1.5,1.75s1.47-.5,1.47-1.26a1.3,1.3,0,0,0-.62-1.21c-.8-.44-2.22-.69-4.07-1.35-2.54-.9-3.72-2.29-3.72-4.75,0-3.44,2.5-5.51,7.08-5.51,4.16,0,6.36,1.73,6.36,4.82v.37h-5.21c-.07-1.05-.5-1.56-1.37-1.56A1.19,1.19,0,0,0,566.89,7c0,1.23,1.09,1.18,3.08,1.79,3.64,1.08,5.38,2.21,5.38,5.4,0,3.71-2.66,6.13-7.2,6.13s-7-1.95-7-5.3a4.72,4.72,0,0,1,0-.63Z" transform="translate(-4.25 -2.17)" style="fill: #fff"/>
    <polygon points="593.53 4.19 589.53 4.19 589.53 17.19 583.53 17.19 583.53 4.19 579.53 4.19 579.53 0.19 593.53 0.19 593.53 4.19" style="fill: #fff"/>
    <path d="M513.61,33.68c-1.95,0-2.95.43-2.95,1.5,0,.8.57,1.25,1.47,1.25,1.39,0,2.28-.87,2.28-2.72-.2,0-.47,0-.8,0Zm-4-4a6.36,6.36,0,0,1,3-.69c2.6,0,3.59,1.41,3.59,3.44a4.62,4.62,0,0,1-.41,2.29v.91a7.76,7.76,0,0,1,.49,1.76h-1.69c0,.22,0-.08,0-.33s0-.5,0-.67h0a3.26,3.26,0,0,1-2.92,1.49c-1.74,0-2.94-1-2.94-2.6,0-1.79,1.62-2.79,4.48-2.79.35,0,.82,0,1.21,0a1.84,1.84,0,0,0-2.1-2.07,4.88,4.88,0,0,0-2.56.78Z" transform="translate(-4.25 -2.17)" style="fill: #fff"/>
    <path d="M524.64,36.36a3.34,3.34,0,0,1-3,1.56c-1.86,0-2.89-3.38-2.89-3.38V29.36h2v4.33c0,1.63.25,2.85,1.78,2.85s2.22-1.28,2.22-2.84V29.36h2v5.8a12.69,12.69,0,0,0-.23,2.2h-1.81a3.58,3.58,0,0,1-.07-1Z" transform="translate(-4.25 -2.17)" style="fill: #fff"/>
    <path d="M531.78,29.36h2v1h-2v3.56c0,1.32.24,2.09,1.51,2.09a2.9,2.9,0,0,0,.94-.17l.06,1.49a5.7,5.7,0,0,1-1.55.21c-2.24,0-3-1.13-3-3.19v-4h-2v-1h2v-1.9l2-.62Z" transform="translate(-4.25 -2.17)" style="fill: #fff"/>
    <path d="M537,33.47c0,1.79,1,3,2.44,3s2.44-1.17,2.44-3-1-3-2.46-3-2.42,1.17-2.42,3m6.89,0a4.47,4.47,0,0,1-8.93,0,4.47,4.47,0,1,1,8.93,0" transform="translate(-4.25 -2.17)" style="fill: #fff"/>
    <path d="M545.52,35.9a4.92,4.92,0,0,0,2.24.56c.84,0,1.51-.36,1.51-1.05s-.38-.92-1.72-1.47c-1.55-.63-2.13-1.25-2.13-2.42,0-1.59,1.29-2.56,3.2-2.56a6.05,6.05,0,0,1,2.16.37l-.17,1.51a4.37,4.37,0,0,0-1.94-.46c-.77,0-1.36.35-1.36,1s.42.88,1.58,1.32c1.55.6,2.31,1.27,2.31,2.57,0,1.74-1.38,2.66-3.32,2.66a6.77,6.77,0,0,1-2.48-.43Z" transform="translate(-4.25 -2.17)" style="fill: #fff"/>
  </g>
  <g id="logo-caranddriver">
    <polygon id="Fill-1" points="54.14 32 72.53 32 72.53 24.07 54.14 24.07 54.14 32" style="fill: #24408e"/>
    <path id="Fill-2" d="M105.64,15.37c0,1.2-.22,1.75-.77,1.75h-1V10.45h.76a1,1,0,0,1,1,1.09ZM113,30.13v-5.8c0-3.17-.66-4.37-3.61-5.35,2.73-1,3.5-2,3.5-4.27V11.65c0-3.39-2.29-5.14-6.78-5.14H96.35V34.18h7.54V20.94h.65c.77,0,1.1.44,1.1,1.54v7.87a9.18,9.18,0,0,0,.65,3.83h7.54a7.86,7.86,0,0,1-.87-4.05Z" transform="translate(-4.25 -2.17)" style="fill: #fefefe"/>
    <polygon id="Fill-4" points="152.35 4.34 152.35 8.28 146.44 8.28 146.44 14.95 151.8 14.95 151.8 18.78 146.44 18.78 146.44 27.96 152.78 27.96 152.78 32.01 138.25 32.01 138.25 4.34 152.35 4.34" style="fill: #fefefe"/>
    <polygon id="Fill-5" points="134.31 32.01 123.71 32.01 118.68 4.34 126.22 4.34 129.39 21.29 131.36 4.34 137.48 4.34 134.31 32.01" style="fill: #fefefe"/>
    <polygon id="Fill-6" points="110.31 32.01 117.84 32.01 117.84 4.34 110.31 4.34 110.31 32.01" style="fill: #fefefe"/>
    <path id="Fill-14" d="M28.46,22.58h1.75L29.34,16ZM35.57,6.51,39.5,34.17H31.85l-1.07-7.75H28l-1,7.75H20.48l4.6-27.66Z" transform="translate(-4.25 -2.17)" style="fill: #fefefe"/>
    <path id="Fill-15" d="M74.13,23c0,.39-.11.56-.29.56h-.38V17.14h.35a.32.32,0,0,1,.32.35Zm.25-7.14H71v8.94h3.71c1.35,0,1.8-.67,1.8-1.87V18a1.88,1.88,0,0,0-2.15-2.08Z" transform="translate(-4.25 -2.17)" style="fill: #fefefe"/>
    <polygon id="Fill-17" points="63.9 16.99 63.9 13.7 65.87 13.7 65.87 22.65 64 22.65 62.68 19.25 62.68 22.65 60.86 22.65 60.86 13.7 62.77 13.7 63.9 16.99" style="fill: #fefefe"/>
    <path id="Fill-18" d="M61,21.06,61.43,18l.41,3.07Zm2.32-5.2H60.15l-1.48,9h1.84l.34-2.51H62l.35,2.51h2.26Z" transform="translate(-4.25 -2.17)" style="fill: #fefefe"/>
    <path id="Fill-19" d="M167.05,15.37c0,1.2-.22,1.75-.77,1.75h-1V10.45h.76a1,1,0,0,1,1,1.09Zm7.5,14.76v-5.8c0-3.17-.66-4.37-3.61-5.35,2.73-1,3.5-2,3.5-4.27V11.65c0-3.39-2.29-5.14-6.77-5.14h-9.73V34.18h7.54V20.94h.65c.77,0,1.1.44,1.1,1.54v7.87a9.18,9.18,0,0,0,.65,3.83h7.54a7.86,7.86,0,0,1-.87-4.05Z" transform="translate(-4.25 -2.17)" style="fill: #fefefe"/>
    <polygon id="Fill-21" points="54.14 12.27 72.53 12.27 72.53 4.34 54.14 4.34 54.14 12.27" style="fill: #c4122e"/>
    <path id="Fill-7" d="M87.42,28.6c0,1.2-.33,1.75-.87,1.75h-.88V10.45h.77a1,1,0,0,1,1,1.09ZM88.51,6.51H78.13V34.17H89.6c4.16,0,5.58-2.07,5.58-5.79V13c-.11-4.37-2.3-6.45-6.67-6.45Z" transform="translate(-4.25 -2.17)" style="fill: #fefefe"/>
    <path id="Fill-9" d="M49.55,15.37c0,1.2-.22,1.75-.77,1.75h-1V10.45h.76a1,1,0,0,1,1,1.09Zm7.32,14.76v-5.8c0-3.17-.66-4.37-3.61-5.35,2.73-1,3.5-2,3.5-4.27V11.65c0-3.39-2.29-5.14-6.78-5.14H40.25V34.18H47.8V20.94h.65c.77,0,1.09.44,1.09,1.54v7.87a9,9,0,0,0,.66,3.83h7.54a7.86,7.86,0,0,1-.87-4.05Z" transform="translate(-4.25 -2.17)" style="fill: #fefefe"/>
    <path id="Fill-11" d="M20.43,28.71c-.11,4.37-2.19,6-7.87,6-6.13,0-8.31-1.86-8.31-7V12c0-4.16,2.51-6,8.52-6,4.6,0,7.55,2.3,7.55,5.8v4.81H13.65V11.72c0-1.32-.52-1.49-.88-1.49s-.87.17-.87,1.31V29.12c0,.86.52,1.23,1,1.23s1-.37,1-1.41V22.58h6.56Z" transform="translate(-4.25 -2.17)" style="fill: #fefefe"/>
    <path id="Fill-22" d="M172.72,32.92a.91.91,0,0,1,.9-.9.89.89,0,0,1,.9.9.9.9,0,1,1-1.8,0m-.19,0a1.1,1.1,0,1,0,1.09-1.1,1.09,1.09,0,0,0-1.09,1.1" transform="translate(-4.25 -2.17)" style="fill: #fefefe"/>
    <path id="Fill-24" d="M173.53,32.91h-.13l0,0,0-.1v-.14l0-.09,0,0h.18c.21,0,.27,0,.27.15s-.12.17-.32.2Zm.48.26a.57.57,0,0,0-.3-.17v0c.22,0,.38-.12.38-.3s-.16-.28-.47-.28h-.44v1h.24v-.24l0-.1,0,0h.1a.33.33,0,0,1,.24.13l.19.22h.28v0Z" transform="translate(-4.25 -2.17)" style="fill: #fefefe"/>
  </g>
</svg>
