<svg width="18px" height="18px" viewBox="0 0 60 57" version="1.1" xmlns="http://www.w3.org/2000/svg" xmlns:xlink="http://www.w3.org/1999/xlink">
    <title>Story Icon</title>
    <defs></defs>
    <g stroke="none" stroke-width="1" fill="none" fill-rule="evenodd">
        <g transform="translate(14.000000, 9.000000)"  fill="#1383b3">
            <path d="M18.852,3.67162162 L18.852,10.3297297 C18.852,10.9310811 19.072,11.5094595 19.492,11.9351351 C19.9146667,12.3581081 20.4773333,12.5743243 21.072,12.5702703 L27.7266667,12.5081081 L27.7653333,35.6405405 L31.1933333,35.6405405 L31.1933333,12.4297297 C31.1933333,10.9297297 30.6266667,9.48648649 29.5853333,8.41891892 L22.9853333,1.67162162 C21.9293333,0.590540541 20.5013333,0 19.0013333,0 L3.68,0 C2.004,0 0.636,1.34324324 0.636,3.04324324 L0.636,36.0486486 C0.636,37.7486486 2.00533333,39.1162162 3.68133333,39.1162162 L28.1966945,39.1162162 C29.8516924,39.1162162 31.1933333,37.7823695 31.1933333,36.1238184 L31.1933333,35.6405405 L4.06533333,35.6405405 L4.06266667,3.67162162 L18.852,3.67162162 Z M22.2813333,6.06351351 L25.32,9.03243243 L25.3133333,9.03243243 L22.2813333,9.10405405 L22.2813333,6.06351351 L22.2813333,6.06351351 Z"></path>
            <path d="M8.296,11.1189189 L13.1066667,11.1189189 C14.064,11.1189189 14.8413333,10.3513514 14.8413333,9.37837838 C14.8413333,8.40945946 14.064,7.64324324 13.1066667,7.64324324 L8.296,7.64324324 C7.33733333,7.64324324 6.56266667,8.40945946 6.56266667,9.37837838 C6.56266667,10.3513514 7.33733333,11.1189189 8.296,11.1189189 L8.296,11.1189189 Z"></path>
            <path d="M23.6226667,14.3932432 L8.296,14.3932432 C7.33733333,14.3932432 6.56266667,15.1581081 6.56266667,16.1297297 C6.56266667,17.1013514 7.33733333,17.8689189 8.296,17.8689189 L23.6226667,17.8689189 C24.5826667,17.8689189 25.36,17.1013514 25.36,16.1297297 C25.36,15.1581081 24.5826667,14.3932432 23.6226667,14.3932432 L23.6226667,14.3932432 Z"></path>
            <path d="M23.46,20.5405405 L8.13333333,20.5405405 C7.17466667,20.5405405 6.4,21.4581081 6.4,22.427027 C6.4,23.4 7.17466667,24.3135135 8.13333333,24.3135135 L23.46,24.3135135 C24.42,24.3135135 25.1973333,23.3972973 25.1973333,22.427027 C25.1973333,21.4581081 24.42,20.5405405 23.46,20.5405405 L23.46,20.5405405 Z"></path>
            <path d="M23.46,27.027027 L8.13333333,27.027027 C7.17466667,27.027027 6.4,27.9445946 6.4,28.9135135 C6.4,29.8864865 7.17466667,30.8 8.13333333,30.8 L23.46,30.8 C24.42,30.8 25.1973333,29.8837838 25.1973333,28.9135135 C25.1973333,27.9445946 24.42,27.027027 23.46,27.027027 L23.46,27.027027 Z"></path>
        </g>
    </g>
</svg>
